<mxfile host="app.diagrams.net" agent="Mozilla/5.0 (Windows NT 10.0; Win64; x64) AppleWebKit/537.36 (KHTML, like Gecko) Chrome/127.0.0.0 Safari/537.36" version="24.7.6">
  <diagram name="Page-1" id="2a216829-ef6e-dabb-86c1-c78162f3ba2b">
    <mxGraphModel dx="1393" dy="740" grid="1" gridSize="10" guides="1" tooltips="1" connect="1" arrows="1" fold="1" page="1" pageScale="1" pageWidth="850" pageHeight="1100" background="none" math="0" shadow="0">
      <root>
        <mxCell id="0" />
        <mxCell id="1" parent="0" />
        <mxCell id="V5kO5UU63FvXO7QvQjFS-2" value="" style="edgeStyle=orthogonalEdgeStyle;rounded=0;orthogonalLoop=1;jettySize=auto;html=1;" parent="1" edge="1">
          <mxGeometry relative="1" as="geometry">
            <mxPoint x="590" y="205" as="sourcePoint" />
          </mxGeometry>
        </mxCell>
        <mxCell id="V5kO5UU63FvXO7QvQjFS-9" value="Airline Listeners \ Callers" style="swimlane;fontSize=20;" parent="1" vertex="1">
          <mxGeometry x="160" y="210" width="390" height="810" as="geometry" />
        </mxCell>
        <mxCell id="V5kO5UU63FvXO7QvQjFS-10" value="ELAL Listener&lt;span style=&quot;color: rgba(0, 0, 0, 0); font-family: monospace; font-size: 0px; text-align: start; text-wrap: nowrap;&quot;&gt;%3CmxGraphModel%3E%3Croot%3E%3CmxCell%20id%3D%220%22%2F%3E%3CmxCell%20id%3D%221%22%20parent%3D%220%22%2F%3E%3CmxCell%20id%3D%222%22%20value%3D%22Task%22%20style%3D%22shape%3Dext%3Brounded%3D1%3Bhtml%3D1%3BwhiteSpace%3Dwrap%3B%22%20vertex%3D%221%22%20parent%3D%221%22%3E%3CmxGeometry%20x%3D%22365%22%20y%3D%22260%22%20width%3D%22120%22%20height%3D%2280%22%20as%3D%22geometry%22%2F%3E%3C%2FmxCell%3E%3C%2Froot%3E%3C%2FmxGraphModel%3E&lt;/span&gt;" style="shape=ext;rounded=1;html=1;whiteSpace=wrap;fontSize=21;fontStyle=1" parent="V5kO5UU63FvXO7QvQjFS-9" vertex="1">
          <mxGeometry x="100" y="70" width="220" height="80" as="geometry" />
        </mxCell>
        <mxCell id="V5kO5UU63FvXO7QvQjFS-21" value="DeltaCaller &lt;font style=&quot;font-size: 20px;&quot;&gt;(GetUpdates)&lt;/font&gt;" style="shape=ext;rounded=1;html=1;whiteSpace=wrap;fontSize=21;fontStyle=1" parent="V5kO5UU63FvXO7QvQjFS-9" vertex="1">
          <mxGeometry x="95" y="650" width="220" height="80" as="geometry" />
        </mxCell>
        <mxCell id="V5kO5UU63FvXO7QvQjFS-20" value="LufthansaListener" style="shape=ext;rounded=1;html=1;whiteSpace=wrap;fontSize=21;fontStyle=1" parent="V5kO5UU63FvXO7QvQjFS-9" vertex="1">
          <mxGeometry x="95" y="540" width="220" height="80" as="geometry" />
        </mxCell>
        <mxCell id="V5kO5UU63FvXO7QvQjFS-19" value="KayakCaller&lt;br&gt;&lt;span style=&quot;font-size: 20px;&quot;&gt;(GetUpdates)&lt;/span&gt;" style="shape=ext;rounded=1;html=1;whiteSpace=wrap;fontSize=21;fontStyle=1" parent="V5kO5UU63FvXO7QvQjFS-9" vertex="1">
          <mxGeometry x="95" y="420" width="220" height="80" as="geometry" />
        </mxCell>
        <mxCell id="V5kO5UU63FvXO7QvQjFS-18" value="EmiratesListener" style="shape=ext;rounded=1;html=1;whiteSpace=wrap;fontSize=21;fontStyle=1" parent="V5kO5UU63FvXO7QvQjFS-9" vertex="1">
          <mxGeometry x="95" y="300" width="220" height="80" as="geometry" />
        </mxCell>
        <mxCell id="V5kO5UU63FvXO7QvQjFS-17" value="SecretFlightsCaller&lt;br&gt;&lt;span style=&quot;font-size: 20px;&quot;&gt;(GetUpdates)&lt;/span&gt;" style="shape=ext;rounded=1;html=1;whiteSpace=wrap;fontSize=21;fontStyle=1" parent="V5kO5UU63FvXO7QvQjFS-9" vertex="1">
          <mxGeometry x="100" y="180" width="220" height="80" as="geometry" />
        </mxCell>
        <mxCell id="V5kO5UU63FvXO7QvQjFS-24" value="" style="aspect=fixed;sketch=0;html=1;dashed=0;whitespace=wrap;verticalLabelPosition=bottom;verticalAlign=top;fillColor=#2875E2;strokeColor=#ffffff;points=[[0.005,0.63,0],[0.1,0.2,0],[0.9,0.2,0],[0.5,0,0],[0.995,0.63,0],[0.72,0.99,0],[0.5,1,0],[0.28,0.99,0]];shape=mxgraph.kubernetes.icon2;kubernetesLabel=1;prIcon=api" parent="1" vertex="1">
          <mxGeometry x="30" y="406" width="50" height="48" as="geometry" />
        </mxCell>
        <mxCell id="V5kO5UU63FvXO7QvQjFS-25" value="" style="aspect=fixed;sketch=0;html=1;dashed=0;whitespace=wrap;verticalLabelPosition=bottom;verticalAlign=top;fillColor=#2875E2;strokeColor=#ffffff;points=[[0.005,0.63,0],[0.1,0.2,0],[0.9,0.2,0],[0.5,0,0],[0.995,0.63,0],[0.72,0.99,0],[0.5,1,0],[0.28,0.99,0]];shape=mxgraph.kubernetes.icon2;kubernetesLabel=1;prIcon=api" parent="1" vertex="1">
          <mxGeometry x="30" y="650" width="50" height="48" as="geometry" />
        </mxCell>
        <mxCell id="V5kO5UU63FvXO7QvQjFS-26" value="" style="aspect=fixed;sketch=0;html=1;dashed=0;whitespace=wrap;verticalLabelPosition=bottom;verticalAlign=top;fillColor=#2875E2;strokeColor=#ffffff;points=[[0.005,0.63,0],[0.1,0.2,0],[0.9,0.2,0],[0.5,0,0],[0.995,0.63,0],[0.72,0.99,0],[0.5,1,0],[0.28,0.99,0]];shape=mxgraph.kubernetes.icon2;kubernetesLabel=1;prIcon=api" parent="1" vertex="1">
          <mxGeometry x="30" y="870" width="50" height="48" as="geometry" />
        </mxCell>
        <mxCell id="V5kO5UU63FvXO7QvQjFS-27" value="" style="outlineConnect=0;dashed=0;verticalLabelPosition=bottom;verticalAlign=top;align=center;html=1;shape=mxgraph.aws3.queue;fillColor=#D9A741;gradientColor=none;" parent="1" vertex="1">
          <mxGeometry x="19" y="296" width="73.5" height="48" as="geometry" />
        </mxCell>
        <mxCell id="V5kO5UU63FvXO7QvQjFS-28" value="" style="outlineConnect=0;dashed=0;verticalLabelPosition=bottom;verticalAlign=top;align=center;html=1;shape=mxgraph.aws3.queue;fillColor=#D9A741;gradientColor=none;" parent="1" vertex="1">
          <mxGeometry x="19" y="526" width="73.5" height="48" as="geometry" />
        </mxCell>
        <mxCell id="V5kO5UU63FvXO7QvQjFS-29" value="" style="outlineConnect=0;dashed=0;verticalLabelPosition=bottom;verticalAlign=top;align=center;html=1;shape=mxgraph.aws3.queue;fillColor=#D9A741;gradientColor=none;" parent="1" vertex="1">
          <mxGeometry x="19" y="770" width="73.5" height="48" as="geometry" />
        </mxCell>
        <mxCell id="V5kO5UU63FvXO7QvQjFS-30" value="" style="endArrow=classic;html=1;rounded=0;entryX=-0.011;entryY=0.621;entryDx=0;entryDy=0;entryPerimeter=0;" parent="1" target="V5kO5UU63FvXO7QvQjFS-10" edge="1">
          <mxGeometry width="50" height="50" relative="1" as="geometry">
            <mxPoint x="92.5" y="330" as="sourcePoint" />
            <mxPoint x="142.5" y="280" as="targetPoint" />
          </mxGeometry>
        </mxCell>
        <mxCell id="V5kO5UU63FvXO7QvQjFS-31" value="" style="endArrow=classic;html=1;rounded=0;entryX=-0.011;entryY=0.621;entryDx=0;entryDy=0;entryPerimeter=0;" parent="1" edge="1">
          <mxGeometry width="50" height="50" relative="1" as="geometry">
            <mxPoint x="92.5" y="800" as="sourcePoint" />
            <mxPoint x="258" y="800" as="targetPoint" />
          </mxGeometry>
        </mxCell>
        <mxCell id="V5kO5UU63FvXO7QvQjFS-32" value="" style="endArrow=classic;html=1;rounded=0;" parent="1" edge="1">
          <mxGeometry width="50" height="50" relative="1" as="geometry">
            <mxPoint x="100" y="550" as="sourcePoint" />
            <mxPoint x="250" y="550" as="targetPoint" />
          </mxGeometry>
        </mxCell>
        <mxCell id="V5kO5UU63FvXO7QvQjFS-33" value="" style="endArrow=classic;startArrow=classic;html=1;rounded=0;entryX=0;entryY=0.5;entryDx=0;entryDy=0;exitX=0.995;exitY=0.63;exitDx=0;exitDy=0;exitPerimeter=0;" parent="1" target="V5kO5UU63FvXO7QvQjFS-17" edge="1">
          <mxGeometry width="50" height="50" relative="1" as="geometry">
            <mxPoint x="79.75" y="432.24" as="sourcePoint" />
            <mxPoint x="259.9999999999998" y="426" as="targetPoint" />
          </mxGeometry>
        </mxCell>
        <mxCell id="V5kO5UU63FvXO7QvQjFS-34" value="" style="endArrow=classic;startArrow=classic;html=1;rounded=0;entryX=0;entryY=0.5;entryDx=0;entryDy=0;exitX=0.995;exitY=0.63;exitDx=0;exitDy=0;exitPerimeter=0;" parent="1" edge="1">
          <mxGeometry width="50" height="50" relative="1" as="geometry">
            <mxPoint x="77.75" y="674.24" as="sourcePoint" />
            <mxPoint x="258" y="672" as="targetPoint" />
          </mxGeometry>
        </mxCell>
        <mxCell id="V5kO5UU63FvXO7QvQjFS-35" value="" style="endArrow=classic;startArrow=classic;html=1;rounded=0;entryX=0;entryY=0.5;entryDx=0;entryDy=0;exitX=0.995;exitY=0.63;exitDx=0;exitDy=0;exitPerimeter=0;" parent="1" edge="1">
          <mxGeometry width="50" height="50" relative="1" as="geometry">
            <mxPoint x="75" y="898.12" as="sourcePoint" />
            <mxPoint x="255.25" y="895.88" as="targetPoint" />
          </mxGeometry>
        </mxCell>
        <mxCell id="V5kO5UU63FvXO7QvQjFS-36" value="" style="editableCssRules=.*;html=1;shape=image;verticalLabelPosition=bottom;labelBackgroundColor=#ffffff;verticalAlign=top;aspect=fixed;imageAspect=0;image=data:image/svg+xml,PHN2ZyB4bWxucz0iaHR0cDovL3d3dy53My5vcmcvMjAwMC9zdmciIHhtbG5zOnY9Imh0dHBzOi8vdmVjdGEuaW8vbmFubyIgd2lkdGg9IjE4LjMxOTk5OTY5NDgyNDIyIiBoZWlnaHQ9IjIwLjAwMDAwMTkwNzM0ODYzMyIgdmlld0JveD0iMCAwIDE4LjMxOTk5OTY5NDgyNDIyIDIwLjAwMDAwMTkwNzM0ODYzMyI+JiN4YTsJPHN0eWxlIHR5cGU9InRleHQvY3NzIj4mI3hhOwkuc3Qwe2ZpbGw6IzY2OWRmNjt9JiN4YTsJLnN0MXtmaWxsOiM0Mjg1ZjQ7fSYjeGE7CS5zdDJ7ZmlsbDojYWVjYmZhO30mI3hhOwk8L3N0eWxlPiYjeGE7CTxkZWZzPiYjeGE7CQk8ZmlsdGVyIGlkPSJBIiB4PSI0LjY0IiB5PSI0LjE5IiB3aWR0aD0iMTQuNzMiIGhlaWdodD0iMTIuNzYiIGZpbHRlclVuaXRzPSJ1c2VyU3BhY2VPblVzZSIgY29sb3ItaW50ZXJwb2xhdGlvbi1maWx0ZXJzPSJzUkdCIj4mI3hhOwkJCTxmZUZsb29kIGZsb29kLWNvbG9yPSIjZmZmIi8+JiN4YTsJCQk8ZmVCbGVuZCBpbj0iU291cmNlR3JhcGhpYyIvPiYjeGE7CQk8L2ZpbHRlcj4mI3hhOwkJPG1hc2sgaWQ9IkIiIHg9IjQuNjQiIHk9IjQuMTkiIHdpZHRoPSIxNC43MyIgaGVpZ2h0PSIxMi43NiIgbWFza1VuaXRzPSJ1c2VyU3BhY2VPblVzZSI+JiN4YTsJCQk8Y2lyY2xlIGN4PSIxMiIgY3k9IjEyLjIzIiByPSIzLjU4IiBmaWx0ZXI9InVybCgjQSkiLz4mI3hhOwkJPC9tYXNrPiYjeGE7CTwvZGVmcz4mI3hhOwk8ZyBjbGFzcz0ic3QwIj4mI3hhOwkJPGNpcmNsZSBjeD0iMTYuMTMiIGN5PSI2LjIxIiByPSIxLjcyIi8+JiN4YTsJCTxjaXJjbGUgY3g9IjIuMTkiIGN5PSI2LjIxIiByPSIxLjcyIi8+JiN4YTsJCTxjaXJjbGUgY3g9IjkuMTYiIGN5PSIxOC4yOCIgcj0iMS43MiIvPiYjeGE7CTwvZz4mI3hhOwk8ZyBtYXNrPSJ1cmwoI0IpIiB0cmFuc2Zvcm09InRyYW5zbGF0ZSgtMi44NCAtMikiPiYjeGE7CQk8cGF0aCB0cmFuc2Zvcm09Im1hdHJpeCguNSAtLjg3IC44NyAuNSAtNC41OSAyMC41MykiIGQ9Ik0xNC42OSAxMC4yMmgxLjU5djguMDRoLTEuNTl6IiBjbGFzcz0ic3QxIi8+JiN4YTsJCTxwYXRoIHRyYW5zZm9ybT0icm90YXRlKDMzMCA4LjUyMyAxNC4yNDQpIiBkPSJNNC40OSAxMy40NWg4LjA0djEuNTlINC40OXoiIGNsYXNzPSJzdDEiLz4mI3hhOwkJPHBhdGggZD0iTTExLjIgNC4xOWgxLjU5djguMDRIMTEuMnoiIGNsYXNzPSJzdDEiLz4mI3hhOwk8L2c+JiN4YTsJPGcgY2xhc3M9InN0MiI+JiN4YTsJCTxjaXJjbGUgY3g9IjkuMTYiIGN5PSIxMC4yMyIgcj0iMi43OCIvPiYjeGE7CQk8Y2lyY2xlIGN4PSIyLjE5IiBjeT0iMTQuMjUiIHI9IjIuMTkiLz4mI3hhOwkJPGNpcmNsZSBjeD0iMTYuMTMiIGN5PSIxNC4yNSIgcj0iMi4xOSIvPiYjeGE7CQk8Y2lyY2xlIGN4PSI5LjE2IiBjeT0iMi4xOSIgcj0iMi4xOSIvPiYjeGE7CTwvZz4mI3hhOzwvc3ZnPg==;" parent="1" vertex="1">
          <mxGeometry x="800" y="500" width="126" height="140" as="geometry" />
        </mxCell>
        <mxCell id="V5kO5UU63FvXO7QvQjFS-37" value="Flight" style="swimlane;html=1;fontStyle=1;align=center;verticalAlign=top;childLayout=stackLayout;horizontal=1;startSize=26;horizontalStack=0;resizeParent=1;resizeLast=0;collapsible=1;marginBottom=0;swimlaneFillColor=#ffffff;rounded=0;shadow=0;comic=0;labelBackgroundColor=none;strokeWidth=1;fillColor=none;fontFamily=Verdana;fontSize=14;" parent="1" vertex="1">
          <mxGeometry x="630" y="105" width="190" height="288" as="geometry">
            <mxRectangle x="180" y="180" width="70" height="30" as="alternateBounds" />
          </mxGeometry>
        </mxCell>
        <mxCell id="V5kO5UU63FvXO7QvQjFS-38" value="String : FlightID" style="text;html=1;strokeColor=none;fillColor=none;align=left;verticalAlign=top;spacingLeft=4;spacingRight=4;whiteSpace=wrap;overflow=hidden;rotatable=0;points=[[0,0.5],[1,0.5]];portConstraint=eastwest;fontSize=14;" parent="V5kO5UU63FvXO7QvQjFS-37" vertex="1">
          <mxGeometry y="26" width="190" height="26" as="geometry" />
        </mxCell>
        <mxCell id="V5kO5UU63FvXO7QvQjFS-39" value="String : Source" style="text;html=1;strokeColor=none;fillColor=none;align=left;verticalAlign=top;spacingLeft=4;spacingRight=4;whiteSpace=wrap;overflow=hidden;rotatable=0;points=[[0,0.5],[1,0.5]];portConstraint=eastwest;fontSize=14;" parent="V5kO5UU63FvXO7QvQjFS-37" vertex="1">
          <mxGeometry y="52" width="190" height="26" as="geometry" />
        </mxCell>
        <mxCell id="V5kO5UU63FvXO7QvQjFS-40" value="String : Destination" style="text;html=1;strokeColor=none;fillColor=none;align=left;verticalAlign=top;spacingLeft=4;spacingRight=4;whiteSpace=wrap;overflow=hidden;rotatable=0;points=[[0,0.5],[1,0.5]];portConstraint=eastwest;fontSize=14;" parent="V5kO5UU63FvXO7QvQjFS-37" vertex="1">
          <mxGeometry y="78" width="190" height="26" as="geometry" />
        </mxCell>
        <mxCell id="V5kO5UU63FvXO7QvQjFS-41" value="String : Airline" style="text;html=1;strokeColor=none;fillColor=none;align=left;verticalAlign=top;spacingLeft=4;spacingRight=4;whiteSpace=wrap;overflow=hidden;rotatable=0;points=[[0,0.5],[1,0.5]];portConstraint=eastwest;fontSize=14;" parent="1" vertex="1">
          <mxGeometry x="633" y="335" width="160" height="26" as="geometry" />
        </mxCell>
        <mxCell id="V5kO5UU63FvXO7QvQjFS-42" value="Decimal : Price" style="text;html=1;strokeColor=none;fillColor=none;align=left;verticalAlign=top;spacingLeft=4;spacingRight=4;whiteSpace=wrap;overflow=hidden;rotatable=0;points=[[0,0.5],[1,0.5]];portConstraint=eastwest;fontSize=14;" parent="1" vertex="1">
          <mxGeometry x="634" y="360" width="160" height="31" as="geometry" />
        </mxCell>
        <mxCell id="V5kO5UU63FvXO7QvQjFS-43" value="String : FlightAbbreviation&amp;nbsp; (Source+Destination)" style="text;html=1;strokeColor=none;fillColor=none;align=left;verticalAlign=top;spacingLeft=4;spacingRight=4;whiteSpace=wrap;overflow=hidden;rotatable=0;points=[[0,0.5],[1,0.5]];portConstraint=eastwest;fontSize=14;" parent="1" vertex="1">
          <mxGeometry x="630" y="209" width="190" height="45" as="geometry" />
        </mxCell>
        <mxCell id="V5kO5UU63FvXO7QvQjFS-44" value="Boolean : IsReturn" style="text;html=1;strokeColor=none;fillColor=none;align=left;verticalAlign=top;spacingLeft=4;spacingRight=4;whiteSpace=wrap;overflow=hidden;rotatable=0;points=[[0,0.5],[1,0.5]];portConstraint=eastwest;fontSize=14;" parent="1" vertex="1">
          <mxGeometry x="633" y="307" width="168" height="26" as="geometry" />
        </mxCell>
        <mxCell id="V5kO5UU63FvXO7QvQjFS-45" value="Date: DepartureDate" style="text;html=1;strokeColor=none;fillColor=none;align=left;verticalAlign=top;spacingLeft=4;spacingRight=4;whiteSpace=wrap;overflow=hidden;rotatable=0;points=[[0,0.5],[1,0.5]];portConstraint=eastwest;fontSize=14;" parent="1" vertex="1">
          <mxGeometry x="632" y="250" width="168" height="26" as="geometry" />
        </mxCell>
        <mxCell id="V5kO5UU63FvXO7QvQjFS-46" value="Date: ReturnDate (null)&lt;div&gt;&lt;br&gt;&lt;/div&gt;" style="text;html=1;strokeColor=none;fillColor=none;align=left;verticalAlign=top;spacingLeft=4;spacingRight=4;whiteSpace=wrap;overflow=hidden;rotatable=0;points=[[0,0.5],[1,0.5]];portConstraint=eastwest;fontSize=14;" parent="1" vertex="1">
          <mxGeometry x="632" y="278" width="168" height="26" as="geometry" />
        </mxCell>
        <mxCell id="V5kO5UU63FvXO7QvQjFS-47" value="" style="shape=flexArrow;endArrow=classic;html=1;rounded=0;entryX=-0.031;entryY=0.886;entryDx=0;entryDy=0;entryPerimeter=0;" parent="1" edge="1">
          <mxGeometry width="50" height="50" relative="1" as="geometry">
            <mxPoint x="480" y="905" as="sourcePoint" />
            <mxPoint x="826.5439999999996" y="629.0400000000002" as="targetPoint" />
          </mxGeometry>
        </mxCell>
        <mxCell id="V5kO5UU63FvXO7QvQjFS-51" value="" style="shape=flexArrow;endArrow=classic;html=1;rounded=0;exitX=1;exitY=0.5;exitDx=0;exitDy=0;" parent="1" edge="1">
          <mxGeometry width="50" height="50" relative="1" as="geometry">
            <mxPoint x="479.90999999999997" y="807.9599999999998" as="sourcePoint" />
            <mxPoint x="801" y="611" as="targetPoint" />
          </mxGeometry>
        </mxCell>
        <mxCell id="V5kO5UU63FvXO7QvQjFS-52" value="&lt;font style=&quot;font-size: 20px;&quot;&gt;Flights PubSub&lt;/font&gt;" style="rounded=1;whiteSpace=wrap;html=1;" parent="1" vertex="1">
          <mxGeometry x="800" y="431" width="130" height="60" as="geometry" />
        </mxCell>
        <mxCell id="V5kO5UU63FvXO7QvQjFS-53" value="" style="shape=flexArrow;endArrow=classic;html=1;rounded=0;entryX=0.015;entryY=0.569;entryDx=0;entryDy=0;entryPerimeter=0;" parent="1" edge="1">
          <mxGeometry width="50" height="50" relative="1" as="geometry">
            <mxPoint x="480" y="686" as="sourcePoint" />
            <mxPoint x="801.8899999999999" y="584.6599999999999" as="targetPoint" />
          </mxGeometry>
        </mxCell>
        <mxCell id="V5kO5UU63FvXO7QvQjFS-54" value="" style="shape=flexArrow;endArrow=classic;html=1;rounded=0;entryX=0;entryY=0.429;entryDx=0;entryDy=0;entryPerimeter=0;" parent="1" edge="1">
          <mxGeometry width="50" height="50" relative="1" as="geometry">
            <mxPoint x="480" y="556" as="sourcePoint" />
            <mxPoint x="800" y="556.06" as="targetPoint" />
          </mxGeometry>
        </mxCell>
        <mxCell id="V5kO5UU63FvXO7QvQjFS-55" value="" style="shape=flexArrow;endArrow=classic;html=1;rounded=0;entryX=0;entryY=0.25;entryDx=0;entryDy=0;exitX=1.002;exitY=0.639;exitDx=0;exitDy=0;exitPerimeter=0;" parent="1" edge="1">
          <mxGeometry width="50" height="50" relative="1" as="geometry">
            <mxPoint x="480.44000000000005" y="436.1199999999999" as="sourcePoint" />
            <mxPoint x="800" y="530" as="targetPoint" />
          </mxGeometry>
        </mxCell>
        <mxCell id="V5kO5UU63FvXO7QvQjFS-57" value="AlertMatcher" style="shape=ext;rounded=1;html=1;whiteSpace=wrap;fontSize=24;verticalAlign=top;align=left;fontStyle=1" parent="1" vertex="1">
          <mxGeometry x="1080" y="446" width="220" height="80" as="geometry" />
        </mxCell>
        <mxCell id="V5kO5UU63FvXO7QvQjFS-61" value="AlertMatcher" style="shape=ext;rounded=1;html=1;whiteSpace=wrap;fontSize=24;verticalAlign=top;align=left;fontStyle=1" parent="1" vertex="1">
          <mxGeometry x="1111" y="471" width="220" height="80" as="geometry" />
        </mxCell>
        <mxCell id="V5kO5UU63FvXO7QvQjFS-62" value="AlertMatcher" style="shape=ext;rounded=1;html=1;whiteSpace=wrap;fontSize=24;verticalAlign=top;align=left;fontStyle=1" parent="1" vertex="1">
          <mxGeometry x="1139" y="497" width="220" height="80" as="geometry" />
        </mxCell>
        <mxCell id="V5kO5UU63FvXO7QvQjFS-63" value="&lt;font style=&quot;font-size: 24px;&quot;&gt;&lt;b&gt;AlertMatcher&lt;/b&gt;&lt;/font&gt;&lt;br&gt;&lt;font style=&quot;font-size: 20px;&quot;&gt;GetMatchingAlerts()&lt;/font&gt;" style="shape=ext;rounded=1;html=1;whiteSpace=wrap;fontSize=21;verticalAlign=top;align=left;" parent="1" vertex="1">
          <mxGeometry x="1171" y="521" width="220" height="80" as="geometry" />
        </mxCell>
        <mxCell id="V5kO5UU63FvXO7QvQjFS-70" value="" style="sketch=0;shadow=0;dashed=0;html=1;strokeColor=none;fillColor=#505050;labelPosition=center;verticalLabelPosition=bottom;verticalAlign=top;outlineConnect=0;align=center;shape=mxgraph.office.databases.database_partition_5;" parent="1" vertex="1">
          <mxGeometry x="1200" y="884" width="100" height="100" as="geometry" />
        </mxCell>
        <mxCell id="V5kO5UU63FvXO7QvQjFS-71" value="&lt;font style=&quot;font-size: 20px;&quot;&gt;Partitioned indexed Alerts DB&lt;/font&gt;" style="rounded=1;whiteSpace=wrap;html=1;" parent="1" vertex="1">
          <mxGeometry x="1032" y="860" width="151" height="76" as="geometry" />
        </mxCell>
        <mxCell id="V5kO5UU63FvXO7QvQjFS-72" value="Alerts" style="swimlane;html=1;fontStyle=1;align=center;verticalAlign=top;childLayout=stackLayout;horizontal=1;startSize=26;horizontalStack=0;resizeParent=1;resizeLast=0;collapsible=1;marginBottom=0;swimlaneFillColor=#ffffff;rounded=0;shadow=0;comic=0;labelBackgroundColor=none;strokeWidth=1;fillColor=none;fontFamily=Verdana;fontSize=14;" parent="1" vertex="1">
          <mxGeometry x="1333" y="866" width="267" height="228" as="geometry">
            <mxRectangle x="180" y="180" width="70" height="30" as="alternateBounds" />
          </mxGeometry>
        </mxCell>
        <mxCell id="V5kO5UU63FvXO7QvQjFS-73" value="GUID :AlertId &lt;b&gt;PK&lt;/b&gt;" style="text;html=1;strokeColor=none;fillColor=none;align=left;verticalAlign=top;spacingLeft=4;spacingRight=4;whiteSpace=wrap;overflow=hidden;rotatable=0;points=[[0,0.5],[1,0.5]];portConstraint=eastwest;fontSize=14;" parent="V5kO5UU63FvXO7QvQjFS-72" vertex="1">
          <mxGeometry y="26" width="267" height="26" as="geometry" />
        </mxCell>
        <mxCell id="V5kO5UU63FvXO7QvQjFS-74" value="String : UserName" style="text;html=1;strokeColor=none;fillColor=none;align=left;verticalAlign=top;spacingLeft=4;spacingRight=4;whiteSpace=wrap;overflow=hidden;rotatable=0;points=[[0,0.5],[1,0.5]];portConstraint=eastwest;fontSize=14;" parent="V5kO5UU63FvXO7QvQjFS-72" vertex="1">
          <mxGeometry y="52" width="267" height="26" as="geometry" />
        </mxCell>
        <mxCell id="V5kO5UU63FvXO7QvQjFS-75" value="Decimal : RequestedPrice &lt;b&gt;&lt;font style=&quot;font-size: 15px;&quot;&gt;index&lt;/font&gt;&lt;/b&gt;" style="text;html=1;strokeColor=none;fillColor=none;align=left;verticalAlign=top;spacingLeft=4;spacingRight=4;whiteSpace=wrap;overflow=hidden;rotatable=0;points=[[0,0.5],[1,0.5]];portConstraint=eastwest;fontSize=14;" parent="1" vertex="1">
          <mxGeometry x="1335" y="1064" width="215" height="31" as="geometry" />
        </mxCell>
        <mxCell id="V5kO5UU63FvXO7QvQjFS-76" value="String : FlightAbbreviation&amp;nbsp;&lt;b&gt;&lt;font style=&quot;font-size: 15px;&quot;&gt;index&lt;/font&gt;&lt;/b&gt;" style="text;html=1;strokeColor=none;fillColor=none;align=left;verticalAlign=top;spacingLeft=4;spacingRight=4;whiteSpace=wrap;overflow=hidden;rotatable=0;points=[[0,0.5],[1,0.5]];portConstraint=eastwest;fontSize=14;" parent="1" vertex="1">
          <mxGeometry x="1333" y="946" width="247" height="45" as="geometry" />
        </mxCell>
        <mxCell id="V5kO5UU63FvXO7QvQjFS-77" value="Boolean : IsReturn" style="text;html=1;strokeColor=none;fillColor=none;align=left;verticalAlign=top;spacingLeft=4;spacingRight=4;whiteSpace=wrap;overflow=hidden;rotatable=0;points=[[0,0.5],[1,0.5]];portConstraint=eastwest;fontSize=14;" parent="1" vertex="1">
          <mxGeometry x="1335" y="1035" width="168" height="26" as="geometry" />
        </mxCell>
        <mxCell id="V5kO5UU63FvXO7QvQjFS-78" value="Date :&amp;nbsp;DepartureDate &lt;font style=&quot;font-size: 15px;&quot;&gt;&lt;b&gt;index&lt;/b&gt;&lt;/font&gt;" style="text;html=1;strokeColor=none;fillColor=none;align=left;verticalAlign=top;spacingLeft=4;spacingRight=4;whiteSpace=wrap;overflow=hidden;rotatable=0;points=[[0,0.5],[1,0.5]];portConstraint=eastwest;fontSize=14;" parent="1" vertex="1">
          <mxGeometry x="1335" y="974" width="195" height="26" as="geometry" />
        </mxCell>
        <mxCell id="V5kO5UU63FvXO7QvQjFS-79" value="Date : ReturnDate (null)&lt;div&gt;&lt;br&gt;&lt;/div&gt;" style="text;html=1;strokeColor=none;fillColor=none;align=left;verticalAlign=top;spacingLeft=4;spacingRight=4;whiteSpace=wrap;overflow=hidden;rotatable=0;points=[[0,0.5],[1,0.5]];portConstraint=eastwest;fontSize=14;" parent="1" vertex="1">
          <mxGeometry x="1334" y="1003" width="168" height="26" as="geometry" />
        </mxCell>
        <mxCell id="V5kO5UU63FvXO7QvQjFS-80" value="" style="shape=flexArrow;endArrow=classic;startArrow=classic;html=1;rounded=0;entryX=0.303;entryY=1.055;entryDx=0;entryDy=0;entryPerimeter=0;" parent="1" target="V5kO5UU63FvXO7QvQjFS-63" edge="1">
          <mxGeometry width="100" height="100" relative="1" as="geometry">
            <mxPoint x="1240" y="880" as="sourcePoint" />
            <mxPoint x="1460" y="520" as="targetPoint" />
          </mxGeometry>
        </mxCell>
        <mxCell id="V5kO5UU63FvXO7QvQjFS-127" value="" style="editableCssRules=.*;html=1;shape=image;verticalLabelPosition=bottom;labelBackgroundColor=#ffffff;verticalAlign=top;aspect=fixed;imageAspect=0;image=data:image/svg+xml,PHN2ZyB4bWxucz0iaHR0cDovL3d3dy53My5vcmcvMjAwMC9zdmciIHhtbG5zOnY9Imh0dHBzOi8vdmVjdGEuaW8vbmFubyIgd2lkdGg9IjE4LjMxOTk5OTY5NDgyNDIyIiBoZWlnaHQ9IjIwLjAwMDAwMTkwNzM0ODYzMyIgdmlld0JveD0iMCAwIDE4LjMxOTk5OTY5NDgyNDIyIDIwLjAwMDAwMTkwNzM0ODYzMyI+JiN4YTsJPHN0eWxlIHR5cGU9InRleHQvY3NzIj4mI3hhOwkuc3Qwe2ZpbGw6IzY2OWRmNjt9JiN4YTsJLnN0MXtmaWxsOiM0Mjg1ZjQ7fSYjeGE7CS5zdDJ7ZmlsbDojYWVjYmZhO30mI3hhOwk8L3N0eWxlPiYjeGE7CTxkZWZzPiYjeGE7CQk8ZmlsdGVyIGlkPSJBIiB4PSI0LjY0IiB5PSI0LjE5IiB3aWR0aD0iMTQuNzMiIGhlaWdodD0iMTIuNzYiIGZpbHRlclVuaXRzPSJ1c2VyU3BhY2VPblVzZSIgY29sb3ItaW50ZXJwb2xhdGlvbi1maWx0ZXJzPSJzUkdCIj4mI3hhOwkJCTxmZUZsb29kIGZsb29kLWNvbG9yPSIjZmZmIi8+JiN4YTsJCQk8ZmVCbGVuZCBpbj0iU291cmNlR3JhcGhpYyIvPiYjeGE7CQk8L2ZpbHRlcj4mI3hhOwkJPG1hc2sgaWQ9IkIiIHg9IjQuNjQiIHk9IjQuMTkiIHdpZHRoPSIxNC43MyIgaGVpZ2h0PSIxMi43NiIgbWFza1VuaXRzPSJ1c2VyU3BhY2VPblVzZSI+JiN4YTsJCQk8Y2lyY2xlIGN4PSIxMiIgY3k9IjEyLjIzIiByPSIzLjU4IiBmaWx0ZXI9InVybCgjQSkiLz4mI3hhOwkJPC9tYXNrPiYjeGE7CTwvZGVmcz4mI3hhOwk8ZyBjbGFzcz0ic3QwIj4mI3hhOwkJPGNpcmNsZSBjeD0iMTYuMTMiIGN5PSI2LjIxIiByPSIxLjcyIi8+JiN4YTsJCTxjaXJjbGUgY3g9IjIuMTkiIGN5PSI2LjIxIiByPSIxLjcyIi8+JiN4YTsJCTxjaXJjbGUgY3g9IjkuMTYiIGN5PSIxOC4yOCIgcj0iMS43MiIvPiYjeGE7CTwvZz4mI3hhOwk8ZyBtYXNrPSJ1cmwoI0IpIiB0cmFuc2Zvcm09InRyYW5zbGF0ZSgtMi44NCAtMikiPiYjeGE7CQk8cGF0aCB0cmFuc2Zvcm09Im1hdHJpeCguNSAtLjg3IC44NyAuNSAtNC41OSAyMC41MykiIGQ9Ik0xNC42OSAxMC4yMmgxLjU5djguMDRoLTEuNTl6IiBjbGFzcz0ic3QxIi8+JiN4YTsJCTxwYXRoIHRyYW5zZm9ybT0icm90YXRlKDMzMCA4LjUyMyAxNC4yNDQpIiBkPSJNNC40OSAxMy40NWg4LjA0djEuNTlINC40OXoiIGNsYXNzPSJzdDEiLz4mI3hhOwkJPHBhdGggZD0iTTExLjIgNC4xOWgxLjU5djguMDRIMTEuMnoiIGNsYXNzPSJzdDEiLz4mI3hhOwk8L2c+JiN4YTsJPGcgY2xhc3M9InN0MiI+JiN4YTsJCTxjaXJjbGUgY3g9IjkuMTYiIGN5PSIxMC4yMyIgcj0iMi43OCIvPiYjeGE7CQk8Y2lyY2xlIGN4PSIyLjE5IiBjeT0iMTQuMjUiIHI9IjIuMTkiLz4mI3hhOwkJPGNpcmNsZSBjeD0iMTYuMTMiIGN5PSIxNC4yNSIgcj0iMi4xOSIvPiYjeGE7CQk8Y2lyY2xlIGN4PSI5LjE2IiBjeT0iMi4xOSIgcj0iMi4xOSIvPiYjeGE7CTwvZz4mI3hhOzwvc3ZnPg==;" parent="1" vertex="1">
          <mxGeometry x="1630" y="500" width="126" height="140" as="geometry" />
        </mxCell>
        <mxCell id="V5kO5UU63FvXO7QvQjFS-128" value="&lt;font style=&quot;font-size: 20px;&quot;&gt;AlertsToSend&lt;br&gt;PubSub&lt;/font&gt;" style="rounded=1;whiteSpace=wrap;html=1;" parent="1" vertex="1">
          <mxGeometry x="1630" y="431" width="130" height="60" as="geometry" />
        </mxCell>
        <mxCell id="V5kO5UU63FvXO7QvQjFS-129" value="AlertToSend : Alert" style="swimlane;html=1;fontStyle=1;align=center;verticalAlign=top;childLayout=stackLayout;horizontal=1;startSize=26;horizontalStack=0;resizeParent=1;resizeLast=0;collapsible=1;marginBottom=0;swimlaneFillColor=#ffffff;rounded=0;shadow=0;comic=0;labelBackgroundColor=none;strokeWidth=1;fillColor=none;fontFamily=Verdana;fontSize=14;" parent="1" vertex="1">
          <mxGeometry x="1416" y="428" width="181" height="84" as="geometry">
            <mxRectangle x="180" y="180" width="70" height="30" as="alternateBounds" />
          </mxGeometry>
        </mxCell>
        <mxCell id="V5kO5UU63FvXO7QvQjFS-130" value="String : Airline" style="text;html=1;strokeColor=none;fillColor=none;align=left;verticalAlign=top;spacingLeft=4;spacingRight=4;whiteSpace=wrap;overflow=hidden;rotatable=0;points=[[0,0.5],[1,0.5]];portConstraint=eastwest;fontSize=14;" parent="V5kO5UU63FvXO7QvQjFS-129" vertex="1">
          <mxGeometry y="26" width="181" height="26" as="geometry" />
        </mxCell>
        <mxCell id="V5kO5UU63FvXO7QvQjFS-131" value="Decimal : Price" style="text;html=1;strokeColor=none;fillColor=none;align=left;verticalAlign=top;spacingLeft=4;spacingRight=4;whiteSpace=wrap;overflow=hidden;rotatable=0;points=[[0,0.5],[1,0.5]];portConstraint=eastwest;fontSize=14;" parent="V5kO5UU63FvXO7QvQjFS-129" vertex="1">
          <mxGeometry y="52" width="181" height="26" as="geometry" />
        </mxCell>
        <mxCell id="V5kO5UU63FvXO7QvQjFS-132" value="" style="shape=flexArrow;endArrow=classic;html=1;rounded=0;entryX=0.026;entryY=0.324;entryDx=0;entryDy=0;exitX=1;exitY=0.25;exitDx=0;exitDy=0;entryPerimeter=0;" parent="1" source="V5kO5UU63FvXO7QvQjFS-62" target="V5kO5UU63FvXO7QvQjFS-127" edge="1">
          <mxGeometry width="50" height="50" relative="1" as="geometry">
            <mxPoint x="1300.5" y="454" as="sourcePoint" />
            <mxPoint x="1620.5" y="624" as="targetPoint" />
          </mxGeometry>
        </mxCell>
        <mxCell id="V5kO5UU63FvXO7QvQjFS-133" value="" style="shape=flexArrow;endArrow=classic;html=1;rounded=0;entryX=0;entryY=0.75;entryDx=0;entryDy=0;exitX=1.032;exitY=0.429;exitDx=0;exitDy=0;exitPerimeter=0;" parent="1" source="V5kO5UU63FvXO7QvQjFS-36" target="V5kO5UU63FvXO7QvQjFS-61" edge="1">
          <mxGeometry width="50" height="50" relative="1" as="geometry">
            <mxPoint x="960" y="703" as="sourcePoint" />
            <mxPoint x="1229" y="700" as="targetPoint" />
          </mxGeometry>
        </mxCell>
        <mxCell id="V5kO5UU63FvXO7QvQjFS-134" value="&lt;font style=&quot;font-size: 24px;&quot;&gt;&lt;b&gt;AlertSender &lt;/b&gt;&lt;/font&gt;&lt;font style=&quot;font-size: 20px;&quot;&gt;GetUserDevice()&lt;/font&gt;" style="shape=ext;rounded=1;html=1;whiteSpace=wrap;fontSize=21;verticalAlign=top;align=left;" parent="1" vertex="1">
          <mxGeometry x="1890" y="521" width="220" height="80" as="geometry" />
        </mxCell>
        <mxCell id="V5kO5UU63FvXO7QvQjFS-137" value="" style="shape=flexArrow;endArrow=classic;html=1;rounded=0;entryX=0;entryY=0.5;entryDx=0;entryDy=0;" parent="1" target="V5kO5UU63FvXO7QvQjFS-134" edge="1">
          <mxGeometry width="50" height="50" relative="1" as="geometry">
            <mxPoint x="1760" y="561" as="sourcePoint" />
            <mxPoint x="2044" y="688" as="targetPoint" />
          </mxGeometry>
        </mxCell>
        <mxCell id="V5kO5UU63FvXO7QvQjFS-138" value="" style="sketch=0;shadow=0;dashed=0;html=1;strokeColor=none;fillColor=#505050;labelPosition=center;verticalLabelPosition=bottom;verticalAlign=top;outlineConnect=0;align=center;shape=mxgraph.office.databases.database_partition_5;" parent="1" vertex="1">
          <mxGeometry x="1940" y="884" width="100" height="100" as="geometry" />
        </mxCell>
        <mxCell id="V5kO5UU63FvXO7QvQjFS-139" value="Users" style="swimlane;html=1;fontStyle=1;align=center;verticalAlign=top;childLayout=stackLayout;horizontal=1;startSize=26;horizontalStack=0;resizeParent=1;resizeLast=0;collapsible=1;marginBottom=0;swimlaneFillColor=#ffffff;rounded=0;shadow=0;comic=0;labelBackgroundColor=none;strokeWidth=1;fillColor=none;fontFamily=Verdana;fontSize=14;" parent="1" vertex="1">
          <mxGeometry x="2060" y="900" width="181" height="84" as="geometry">
            <mxRectangle x="180" y="180" width="70" height="30" as="alternateBounds" />
          </mxGeometry>
        </mxCell>
        <mxCell id="V5kO5UU63FvXO7QvQjFS-140" value="String : UserName &lt;b&gt;PK&lt;/b&gt;" style="text;html=1;strokeColor=none;fillColor=none;align=left;verticalAlign=top;spacingLeft=4;spacingRight=4;whiteSpace=wrap;overflow=hidden;rotatable=0;points=[[0,0.5],[1,0.5]];portConstraint=eastwest;fontSize=14;" parent="V5kO5UU63FvXO7QvQjFS-139" vertex="1">
          <mxGeometry y="26" width="181" height="26" as="geometry" />
        </mxCell>
        <mxCell id="V5kO5UU63FvXO7QvQjFS-141" value="Long : DeviceId &lt;b&gt;PK&lt;/b&gt;" style="text;html=1;strokeColor=none;fillColor=none;align=left;verticalAlign=top;spacingLeft=4;spacingRight=4;whiteSpace=wrap;overflow=hidden;rotatable=0;points=[[0,0.5],[1,0.5]];portConstraint=eastwest;fontSize=14;" parent="1" vertex="1">
          <mxGeometry x="2061" y="951" width="181" height="23" as="geometry" />
        </mxCell>
        <mxCell id="V5kO5UU63FvXO7QvQjFS-142" value="" style="shape=flexArrow;endArrow=classic;startArrow=classic;html=1;rounded=0;entryX=0.303;entryY=1.055;entryDx=0;entryDy=0;entryPerimeter=0;" parent="1" edge="1">
          <mxGeometry width="100" height="100" relative="1" as="geometry">
            <mxPoint x="2001" y="876" as="sourcePoint" />
            <mxPoint x="1999" y="601" as="targetPoint" />
          </mxGeometry>
        </mxCell>
        <mxCell id="V5kO5UU63FvXO7QvQjFS-143" value="&lt;font style=&quot;font-size: 20px;&quot;&gt;Partitioned Users DB&lt;/font&gt;" style="rounded=1;whiteSpace=wrap;html=1;" parent="1" vertex="1">
          <mxGeometry x="1770" y="904" width="151" height="76" as="geometry" />
        </mxCell>
        <mxCell id="V5kO5UU63FvXO7QvQjFS-147" value="" style="strokeColor=#dddddd;shadow=1;strokeWidth=1;rounded=1;absoluteArcSize=1;arcSize=2;align=left;verticalAlign=top;" parent="1" vertex="1">
          <mxGeometry x="2257" y="490" width="130" height="120" as="geometry" />
        </mxCell>
        <mxCell id="V5kO5UU63FvXO7QvQjFS-148" value="Push&#xa;Notification&#xa;Service" style="sketch=0;dashed=0;connectable=0;html=1;fillColor=#757575;strokeColor=none;shape=mxgraph.gcp2.push_notification_service;part=1;labelPosition=right;verticalLabelPosition=middle;align=left;verticalAlign=middle;spacingLeft=5;fontSize=12;" parent="V5kO5UU63FvXO7QvQjFS-147" vertex="1">
          <mxGeometry y="0.5" width="32" height="32" relative="1" as="geometry">
            <mxPoint x="5" y="-16" as="offset" />
          </mxGeometry>
        </mxCell>
        <mxCell id="V5kO5UU63FvXO7QvQjFS-149" value="" style="shape=flexArrow;endArrow=classic;html=1;rounded=0;" parent="1" edge="1">
          <mxGeometry width="50" height="50" relative="1" as="geometry">
            <mxPoint x="2112" y="560.29" as="sourcePoint" />
            <mxPoint x="2260" y="560" as="targetPoint" />
          </mxGeometry>
        </mxCell>
        <mxCell id="V5kO5UU63FvXO7QvQjFS-153" value="" style="outlineConnect=0;dashed=0;verticalLabelPosition=bottom;verticalAlign=top;align=center;html=1;shape=mxgraph.aws3.mobile_client;fillColor=#D2D3D3;gradientColor=none;" parent="1" vertex="1">
          <mxGeometry x="2470" y="472.5" width="40.5" height="63" as="geometry" />
        </mxCell>
        <mxCell id="V5kO5UU63FvXO7QvQjFS-154" value="" style="outlineConnect=0;dashed=0;verticalLabelPosition=bottom;verticalAlign=top;align=center;html=1;shape=mxgraph.aws3.mobile_client;fillColor=#D2D3D3;gradientColor=none;" parent="1" vertex="1">
          <mxGeometry x="2480" y="482.5" width="40.5" height="63" as="geometry" />
        </mxCell>
        <mxCell id="V5kO5UU63FvXO7QvQjFS-155" value="" style="outlineConnect=0;dashed=0;verticalLabelPosition=bottom;verticalAlign=top;align=center;html=1;shape=mxgraph.aws3.mobile_client;fillColor=#D2D3D3;gradientColor=none;" parent="1" vertex="1">
          <mxGeometry x="2490" y="492.5" width="40.5" height="63" as="geometry" />
        </mxCell>
        <mxCell id="V5kO5UU63FvXO7QvQjFS-156" value="" style="outlineConnect=0;dashed=0;verticalLabelPosition=bottom;verticalAlign=top;align=center;html=1;shape=mxgraph.aws3.mobile_client;fillColor=#D2D3D3;gradientColor=none;" parent="1" vertex="1">
          <mxGeometry x="2500" y="502.5" width="40.5" height="63" as="geometry" />
        </mxCell>
        <mxCell id="V5kO5UU63FvXO7QvQjFS-157" value="" style="outlineConnect=0;dashed=0;verticalLabelPosition=bottom;verticalAlign=top;align=center;html=1;shape=mxgraph.aws3.mobile_client;fillColor=#D2D3D3;gradientColor=none;" parent="1" vertex="1">
          <mxGeometry x="2510" y="512.5" width="40.5" height="63" as="geometry" />
        </mxCell>
        <mxCell id="V5kO5UU63FvXO7QvQjFS-158" value="" style="outlineConnect=0;dashed=0;verticalLabelPosition=bottom;verticalAlign=top;align=center;html=1;shape=mxgraph.aws3.mobile_client;fillColor=#D2D3D3;gradientColor=none;" parent="1" vertex="1">
          <mxGeometry x="2520" y="522.5" width="40.5" height="63" as="geometry" />
        </mxCell>
        <mxCell id="V5kO5UU63FvXO7QvQjFS-159" value="" style="outlineConnect=0;dashed=0;verticalLabelPosition=bottom;verticalAlign=top;align=center;html=1;shape=mxgraph.aws3.mobile_client;fillColor=#D2D3D3;gradientColor=none;" parent="1" vertex="1">
          <mxGeometry x="2530" y="532.5" width="40.5" height="63" as="geometry" />
        </mxCell>
        <mxCell id="V5kO5UU63FvXO7QvQjFS-160" value="" style="outlineConnect=0;dashed=0;verticalLabelPosition=bottom;verticalAlign=top;align=center;html=1;shape=mxgraph.aws3.mobile_client;fillColor=#D2D3D3;gradientColor=none;" parent="1" vertex="1">
          <mxGeometry x="2540" y="542.5" width="40.5" height="63" as="geometry" />
        </mxCell>
        <mxCell id="V5kO5UU63FvXO7QvQjFS-161" value="" style="outlineConnect=0;dashed=0;verticalLabelPosition=bottom;verticalAlign=top;align=center;html=1;shape=mxgraph.aws3.mobile_client;fillColor=#D2D3D3;gradientColor=none;" parent="1" vertex="1">
          <mxGeometry x="2550" y="552.5" width="40.5" height="63" as="geometry" />
        </mxCell>
        <mxCell id="V5kO5UU63FvXO7QvQjFS-162" value="" style="outlineConnect=0;dashed=0;verticalLabelPosition=bottom;verticalAlign=top;align=center;html=1;shape=mxgraph.aws3.mobile_client;fillColor=#D2D3D3;gradientColor=none;" parent="1" vertex="1">
          <mxGeometry x="2560" y="562.5" width="40.5" height="63" as="geometry" />
        </mxCell>
        <mxCell id="V5kO5UU63FvXO7QvQjFS-163" value="" style="outlineConnect=0;dashed=0;verticalLabelPosition=bottom;verticalAlign=top;align=center;html=1;shape=mxgraph.aws3.mobile_client;fillColor=#D2D3D3;gradientColor=none;" parent="1" vertex="1">
          <mxGeometry x="2570" y="572.5" width="40.5" height="63" as="geometry" />
        </mxCell>
        <mxCell id="V5kO5UU63FvXO7QvQjFS-164" value="" style="shape=flexArrow;endArrow=classic;html=1;rounded=0;" parent="1" edge="1">
          <mxGeometry width="50" height="50" relative="1" as="geometry">
            <mxPoint x="2387" y="560.5799999999999" as="sourcePoint" />
            <mxPoint x="2535" y="560.29" as="targetPoint" />
          </mxGeometry>
        </mxCell>
        <mxCell id="V5kO5UU63FvXO7QvQjFS-56" value="" style="shape=flexArrow;endArrow=classic;html=1;rounded=0;entryX=0;entryY=0;entryDx=0;entryDy=0;exitX=1;exitY=0.75;exitDx=0;exitDy=0;" parent="1" source="V5kO5UU63FvXO7QvQjFS-10" target="V5kO5UU63FvXO7QvQjFS-36" edge="1">
          <mxGeometry width="50" height="50" relative="1" as="geometry">
            <mxPoint x="527" y="354" as="sourcePoint" />
            <mxPoint x="847" y="448" as="targetPoint" />
          </mxGeometry>
        </mxCell>
        <mxCell id="rusww5JpGGDn1Tz3eqVj-1" value="&lt;font style=&quot;font-size: 24px;&quot;&gt;&lt;b&gt;Alerts CRUD API&lt;/b&gt;&lt;/font&gt;" style="shape=ext;rounded=1;html=1;whiteSpace=wrap;fontSize=21;verticalAlign=top;align=left;" parent="1" vertex="1">
          <mxGeometry x="901" y="953" width="220" height="46" as="geometry" />
        </mxCell>
        <mxCell id="rusww5JpGGDn1Tz3eqVj-2" value="" style="shape=flexArrow;endArrow=classic;startArrow=classic;html=1;rounded=0;exitX=1;exitY=0.5;exitDx=0;exitDy=0;entryX=0.114;entryY=0.741;entryDx=0;entryDy=0;entryPerimeter=0;" parent="1" source="rusww5JpGGDn1Tz3eqVj-1" target="V5kO5UU63FvXO7QvQjFS-70" edge="1">
          <mxGeometry width="100" height="100" relative="1" as="geometry">
            <mxPoint x="1210" y="1085" as="sourcePoint" />
            <mxPoint x="1310" y="985" as="targetPoint" />
          </mxGeometry>
        </mxCell>
        <mxCell id="rusww5JpGGDn1Tz3eqVj-3" value="&lt;font style=&quot;font-size: 24px;&quot;&gt;&lt;b&gt;Expired Alerts Cleaner&lt;/b&gt;&lt;/font&gt;" style="shape=ext;rounded=1;html=1;whiteSpace=wrap;fontSize=21;verticalAlign=top;align=left;" parent="1" vertex="1">
          <mxGeometry x="1012" y="1048" width="270" height="46" as="geometry" />
        </mxCell>
        <mxCell id="rusww5JpGGDn1Tz3eqVj-5" value="" style="shape=flexArrow;endArrow=classic;startArrow=classic;html=1;rounded=0;exitX=0.5;exitY=0;exitDx=0;exitDy=0;entryX=0.384;entryY=0.847;entryDx=0;entryDy=0;entryPerimeter=0;" parent="1" source="rusww5JpGGDn1Tz3eqVj-3" target="V5kO5UU63FvXO7QvQjFS-70" edge="1">
          <mxGeometry width="100" height="100" relative="1" as="geometry">
            <mxPoint x="1131" y="1023" as="sourcePoint" />
            <mxPoint x="1221" y="1010" as="targetPoint" />
          </mxGeometry>
        </mxCell>
      </root>
    </mxGraphModel>
  </diagram>
</mxfile>
